<svg xmlns="http://www.w3.org/2000/svg" viewBox="0 24.65999984741211 176.66000366210938 46.57999801635742" data-asc="1.220703125" width="176.66000366210938" height="46.57999801635742"><defs/><g><g fill="#000000"><g transform="translate(0, 0)"><path d="M0 61.04L0 24.66L24.51 24.66L24.51 31.01L7.67 31.01L7.67 39.55L23.22 39.55L23.22 45.78L7.67 45.78L7.67 54.69L24.56 54.69L24.56 61.04L0 61.04ZM30.47 71.24L30.47 33.74L37.92 33.74L37.92 38.35L38.26 38.35Q38.77 37.23 39.71 36.08Q40.65 34.94 42.20 34.17Q43.75 33.40 46.02 33.40Q49.02 33.40 51.53 34.95Q54.03 36.50 55.54 39.62Q57.06 42.75 57.06 47.44Q57.06 51.98 55.59 55.11Q54.13 58.25 51.61 59.86Q49.10 61.47 45.97 61.47Q43.77 61.47 42.25 60.74Q40.72 60.01 39.76 58.90Q38.79 57.79 38.26 56.67L38.04 56.67L38.04 71.24L30.47 71.24M37.87 47.41Q37.87 51.03 39.37 53.25Q40.87 55.47 43.60 55.47Q46.39 55.47 47.85 53.21Q49.32 50.95 49.32 47.41Q49.32 43.85 47.86 41.63Q46.41 39.40 43.60 39.40Q40.87 39.40 39.37 41.58Q37.87 43.75 37.87 47.41ZM74.32 61.57Q70.19 61.57 67.18 59.80Q64.16 58.03 62.54 54.87Q60.91 51.71 60.91 47.51Q60.91 43.29 62.54 40.11Q64.16 36.94 67.18 35.17Q70.19 33.40 74.32 33.40Q78.47 33.40 81.48 35.17Q84.50 36.94 86.12 40.11Q87.74 43.29 87.74 47.51Q87.74 51.71 86.12 54.87Q84.50 58.03 81.48 59.80Q78.47 61.57 74.32 61.57M68.60 47.46Q68.60 51.03 70.04 53.34Q71.48 55.66 74.34 55.66Q77.17 55.66 78.61 53.34Q80.05 51.03 80.05 47.46Q80.05 43.90 78.61 41.60Q77.17 39.31 74.34 39.31Q71.48 39.31 70.04 41.60Q68.60 43.90 68.60 47.46ZM105.00 61.57Q100.81 61.57 97.80 59.79Q94.80 58.01 93.20 54.83Q91.60 51.66 91.60 47.51Q91.60 43.31 93.23 40.14Q94.85 36.96 97.85 35.18Q100.85 33.40 104.98 33.40Q108.54 33.40 111.23 34.69Q113.92 35.99 115.48 38.33Q117.04 40.67 117.19 43.85L110.06 43.85Q109.74 41.82 108.47 40.56Q107.20 39.31 105.10 39.31Q102.47 39.31 100.88 41.42Q99.29 43.53 99.29 47.41Q99.29 51.32 100.87 53.49Q102.44 55.66 105.10 55.66Q107.06 55.66 108.40 54.44Q109.74 53.22 110.06 51.03L117.19 51.03Q117.02 54.15 115.50 56.53Q113.99 58.91 111.32 60.24Q108.64 61.57 105.00 61.57ZM129.64 45.26L129.64 61.04L122.07 61.04L122.07 24.66L129.39 24.66L129.39 38.60L129.74 38.60Q130.66 36.18 132.73 34.79Q134.79 33.40 137.89 33.40Q142.14 33.40 144.73 36.13Q147.31 38.87 147.31 43.68L147.31 61.04L139.77 61.04L139.77 45.02Q139.77 42.48 138.50 41.08Q137.23 39.67 134.86 39.67Q132.57 39.67 131.10 41.15Q129.64 42.63 129.64 45.26ZM176.03 41.53L169.14 41.94Q168.85 40.65 167.69 39.71Q166.53 38.77 164.55 38.77Q162.79 38.77 161.60 39.50Q160.40 40.23 160.40 41.46Q160.40 42.43 161.18 43.12Q161.96 43.80 163.84 44.21L168.80 45.19Q176.66 46.75 176.66 52.56Q176.66 55.27 175.10 57.30Q173.54 59.33 170.80 60.45Q168.07 61.57 164.53 61.57Q159.11 61.57 155.91 59.31Q152.71 57.06 152.15 53.15L159.57 52.76Q160.33 56.13 164.55 56.13Q166.53 56.13 167.75 55.35Q168.97 54.57 168.97 53.37Q168.97 51.34 165.48 50.63L160.77 49.66Q152.88 48.07 152.88 41.89Q152.88 37.94 156.04 35.67Q159.20 33.40 164.43 33.40Q169.60 33.40 172.58 35.58Q175.56 37.77 176.03 41.53Z"/></g></g></g></svg>