<svg xmlns="http://www.w3.org/2000/svg" viewBox="0 22.440000534057617 375.0199890136719 45.409996032714844" data-asc="1.220703125" width="375.0199890136719" height="45.409996032714844"><defs/><g><g fill="#000000"><g transform="translate(0, 0)"><path d="M0 31.01L0 24.66L29.86 24.66L29.86 31.01L18.77 31.01L18.77 61.04L11.11 61.04L11.11 31.01L0 31.01ZM34.67 61.04L34.67 33.74L42.24 33.74L42.24 61.04L34.67 61.04M38.45 30.25Q36.77 30.25 35.56 29.13Q34.35 28.00 34.35 26.42Q34.35 24.83 35.56 23.72Q36.77 22.61 38.45 22.61Q40.14 22.61 41.35 23.72Q42.55 24.83 42.55 26.42Q42.55 28.00 41.35 29.13Q40.14 30.25 38.45 30.25ZM48.29 61.04L48.29 33.74L55.47 33.74L55.47 38.60L55.81 38.60Q56.67 36.18 58.67 34.79Q60.67 33.40 63.43 33.40Q66.24 33.40 68.20 34.80Q70.17 36.21 70.80 38.60L71.09 38.60Q71.95 36.23 74.13 34.81Q76.32 33.40 79.32 33.40Q83.13 33.40 85.53 35.82Q87.94 38.23 87.94 42.68L87.94 61.04L80.37 61.04L80.37 44.19Q80.37 41.89 79.16 40.77Q77.95 39.65 76.15 39.65Q74.10 39.65 72.94 40.95Q71.78 42.26 71.78 44.38L71.78 61.04L64.43 61.04L64.43 43.99Q64.43 42.02 63.29 40.83Q62.16 39.65 60.30 39.65Q58.40 39.65 57.13 41.03Q55.86 42.41 55.86 44.68L55.86 61.04L48.29 61.04ZM106.42 61.57Q102.22 61.57 99.19 59.86Q96.17 58.15 94.53 54.99Q92.90 51.83 92.90 47.51Q92.90 43.31 94.52 40.14Q96.14 36.96 99.10 35.18Q102.05 33.40 106.05 33.40Q109.67 33.40 112.59 34.94Q115.50 36.47 117.22 39.55Q118.95 42.63 118.95 47.27L118.95 49.32L100.34 49.32Q100.46 52.42 102.15 54.17Q103.83 55.93 106.54 55.93Q108.42 55.93 109.78 55.13Q111.13 54.32 111.72 52.78L118.70 53.25Q117.90 57.01 114.69 59.29Q111.47 61.57 106.42 61.57M100.39 44.65L111.69 44.65Q111.43 42.07 110.03 40.55Q108.64 39.04 106.13 39.04Q103.59 39.04 102.11 40.61Q100.63 42.19 100.39 44.65ZM136.47 46.22Q136.47 42.19 137.28 37.81Q138.09 33.42 139.50 29.41Q140.92 25.39 142.77 22.44L149.76 22.44Q148.00 26.22 146.75 30.33Q145.51 34.45 144.84 38.50Q144.17 42.55 144.17 46.22Q144.17 49.39 144.73 52.61Q145.29 55.83 146.52 59.53Q147.75 63.23 149.76 67.85L142.77 67.85Q136.47 57.45 136.47 46.22ZM177.00 41.53L170.12 41.94Q169.82 40.65 168.66 39.71Q167.50 38.77 165.53 38.77Q163.77 38.77 162.57 39.50Q161.38 40.23 161.38 41.46Q161.38 42.43 162.16 43.12Q162.94 43.80 164.82 44.21L169.78 45.19Q177.64 46.75 177.64 52.56Q177.64 55.27 176.07 57.30Q174.51 59.33 171.78 60.45Q169.04 61.57 165.50 61.57Q160.08 61.57 156.88 59.31Q153.69 57.06 153.13 53.15L160.55 52.76Q161.30 56.13 165.53 56.13Q167.50 56.13 168.73 55.35Q169.95 54.57 169.95 53.37Q169.95 51.34 166.46 50.63L161.74 49.66Q153.86 48.07 153.86 41.89Q153.86 37.94 157.02 35.67Q160.18 33.40 165.41 33.40Q170.58 33.40 173.56 35.58Q176.54 37.77 177.00 41.53ZM194.85 61.57Q190.65 61.57 187.62 59.86Q184.59 58.15 182.96 54.99Q181.32 51.83 181.32 47.51Q181.32 43.31 182.95 40.14Q184.57 36.96 187.52 35.18Q190.48 33.40 194.48 33.40Q198.10 33.40 201.01 34.94Q203.93 36.47 205.65 39.55Q207.37 42.63 207.37 47.27L207.37 49.32L188.77 49.32Q188.89 52.42 190.58 54.17Q192.26 55.93 194.97 55.93Q196.85 55.93 198.21 55.13Q199.56 54.32 200.15 52.78L207.13 53.25Q206.32 57.01 203.11 59.29Q199.90 61.57 194.85 61.57M188.82 44.65L200.12 44.65Q199.85 42.07 198.46 40.55Q197.07 39.04 194.56 39.04Q192.02 39.04 190.54 40.61Q189.06 42.19 188.82 44.65ZM224.63 61.57Q220.43 61.57 217.43 59.79Q214.43 58.01 212.83 54.83Q211.23 51.66 211.23 47.51Q211.23 43.31 212.85 40.14Q214.48 36.96 217.48 35.18Q220.48 33.40 224.61 33.40Q228.17 33.40 230.86 34.69Q233.54 35.99 235.11 38.33Q236.67 40.67 236.82 43.85L229.69 43.85Q229.37 41.82 228.10 40.56Q226.83 39.31 224.73 39.31Q222.09 39.31 220.51 41.42Q218.92 43.53 218.92 47.41Q218.92 51.32 220.50 53.49Q222.07 55.66 224.73 55.66Q226.68 55.66 228.03 54.44Q229.37 53.22 229.69 51.03L236.82 51.03Q236.65 54.15 235.13 56.53Q233.62 58.91 230.94 60.24Q228.27 61.57 224.63 61.57ZM254.00 61.57Q249.88 61.57 246.86 59.80Q243.85 58.03 242.22 54.87Q240.60 51.71 240.60 47.51Q240.60 43.29 242.22 40.11Q243.85 36.94 246.86 35.17Q249.88 33.40 254.00 33.40Q258.15 33.40 261.17 35.17Q264.18 36.94 265.81 40.11Q267.43 43.29 267.43 47.51Q267.43 51.71 265.81 54.87Q264.18 58.03 261.17 59.80Q258.15 61.57 254.00 61.57M248.29 47.46Q248.29 51.03 249.73 53.34Q251.17 55.66 254.03 55.66Q256.86 55.66 258.30 53.34Q259.74 51.03 259.74 47.46Q259.74 43.90 258.30 41.60Q256.86 39.31 254.03 39.31Q251.17 39.31 249.73 41.60Q248.29 43.90 248.29 47.46ZM279.96 45.26L279.96 61.04L272.39 61.04L272.39 33.74L279.83 33.74L279.83 38.60L280.10 38.60Q281.03 36.21 283.06 34.80Q285.08 33.40 288.11 33.40Q292.38 33.40 294.96 36.15Q297.53 38.89 297.53 43.68L297.53 61.04L289.97 61.04L289.97 45.02Q289.97 42.50 288.68 41.09Q287.40 39.67 285.13 39.67Q282.84 39.67 281.40 41.15Q279.96 42.63 279.96 45.26ZM313.57 61.47Q310.45 61.47 307.93 59.86Q305.42 58.25 303.96 55.11Q302.49 51.98 302.49 47.44Q302.49 42.75 304.00 39.62Q305.52 36.50 308.03 34.95Q310.55 33.40 313.53 33.40Q315.82 33.40 317.36 34.17Q318.90 34.94 319.85 36.08Q320.80 37.23 321.29 38.35L321.51 38.35L321.51 24.66L329.08 24.66L329.08 61.04L321.63 61.04L321.63 56.67L321.29 56.67Q320.78 57.79 319.80 58.90Q318.82 60.01 317.30 60.74Q315.77 61.47 313.57 61.47M321.68 47.41Q321.68 43.75 320.19 41.58Q318.70 39.40 315.94 39.40Q313.13 39.40 311.68 41.63Q310.23 43.85 310.23 47.41Q310.23 50.95 311.69 53.21Q313.16 55.47 315.94 55.47Q318.68 55.47 320.18 53.25Q321.68 51.03 321.68 47.41ZM357.79 41.53L350.90 41.94Q350.61 40.65 349.45 39.71Q348.29 38.77 346.31 38.77Q344.56 38.77 343.36 39.50Q342.16 40.23 342.16 41.46Q342.16 42.43 342.94 43.12Q343.73 43.80 345.61 44.21L350.56 45.19Q358.42 46.75 358.42 52.56Q358.42 55.27 356.86 57.30Q355.30 59.33 352.56 60.45Q349.83 61.57 346.29 61.57Q340.87 61.57 337.67 59.31Q334.47 57.06 333.91 53.15L341.33 52.76Q342.09 56.13 346.31 56.13Q348.29 56.13 349.51 55.35Q350.73 54.57 350.73 53.37Q350.73 51.34 347.24 50.63L342.53 49.66Q334.64 48.07 334.64 41.89Q334.64 37.94 337.81 35.67Q340.97 33.40 346.19 33.40Q351.37 33.40 354.35 35.58Q357.32 37.77 357.79 41.53ZM361.74 67.85Q363.75 63.23 364.98 59.53Q366.21 55.83 366.77 52.61Q367.33 49.39 367.33 46.22Q367.33 42.55 366.66 38.50Q365.99 34.45 364.75 30.33Q363.50 26.22 361.74 22.44L368.73 22.44Q370.58 25.39 372.00 29.41Q373.41 33.42 374.22 37.81Q375.02 42.19 375.02 46.22Q375.02 57.45 368.73 67.85L361.74 67.85Z"/></g></g></g></svg>